<?xml version="1.0" encoding="utf-8"?>
<!-- Generator: Adobe Illustrator 21.1.0, SVG Export Plug-In . SVG Version: 6.00 Build 0)  -->
<svg version="1.1" id="Layer_1" xmlns="http://www.w3.org/2000/svg" xmlns:xlink="http://www.w3.org/1999/xlink" x="0px" y="0px"
	 viewBox="0 0 100 100" xml:space="preserve">
<style type="text/css">
	.st0{fill:#EA501F;}
	.st1{fill:#FFFFFF;}
</style>
<path d="M66.42491,74.85116c.95549-7.82916-4.088-12.82307-17.4005-17.07161-6.44818-2.2-9.48565-5.08075-9.41461-9.05227.26913-4.39664,4.36582-7.60325,9.79875-7.71038a22.0459,22.0459,0,0,1,12.01569,3.70841c.48338.30446.82355.25673,1.09831-.159.37663-.60591,1.31106-2.06018,1.6253-2.58152a.80176.80176,0,0,0-.28454-1.17274,27.60119,27.60119,0,0,0-4.09406-2.2158,26.95763,26.95763,0,0,0-10.46932-2.14438c-7.95282.03345-14.21983,5.06457-14.74268,11.7785q-.51308,7.267,7.20633,11.78038a89.02425,89.02425,0,0,0,9.34883,3.71706c7.392,2.3015,11.2301,6.42713,10.32686,11.23724-.81979,4.36432-5.41151,7.18264-11.74054,7.26835a22.84217,22.84217,0,0,1-13.03581-4.96046c-.08871-.06616-.52848-.40708-.58825-.45294a.75522.75522,0,0,0-1.193.12179c-.21313.3225-1.56629,2.27706-1.908,2.79014-.321.4518-.14922.70026.18418.97728A29.4217,29.4217,0,0,0,37.886,83.938,28.03408,28.03408,0,0,0,49.67092,86.968a20.43571,20.43571,0,0,0,8.64932-1.47607A13.05124,13.05124,0,0,0,66.42491,74.85116ZM49.99718,5.83926c-8.617,0-15.641,8.12159-15.96992,18.28758H65.9671C65.63821,13.96085,58.61417,5.83926,49.99718,5.83926ZM82.71169,99.99737,82.38205,100l-65.77183-.00977h-.0015C12.135,99.823,8.84534,96.19688,8.39654,91.695l-.044-.81115L5.4117,26.18665l.00037-.00038c-.00413-.04886-.00564-.0981-.00564-.14809a1.91127,1.91127,0,0,1,1.876-1.911v-.00037H28.01435C28.52254,10.70349,38.17019,0,49.99718,0S71.47182,10.70349,71.98,24.12684H92.68185a1.91112,1.91112,0,0,1,1.91172,1.91134c0,.03307-.00076.06577-.00226.09848v.00112l-3.2224,64.952-.02932.54991A9.04926,9.04926,0,0,1,82.71169,99.99737Z"></path>
</svg>
